<?xml version="1.0" encoding="utf-8"?>
<!-- Generator: Adobe Illustrator 25.4.1, SVG Export Plug-In . SVG Version: 6.00 Build 0)  -->
<svg version="1.1" id="logo-25" xmlns="http://www.w3.org/2000/svg" xmlns:xlink="http://www.w3.org/1999/xlink" x="0px" y="0px"
	 viewBox="0 0 147 46" style="enable-background:new 0 0 147 46;" xml:space="preserve">
<style type="text/css">
	.st0{fill-rule:evenodd;clip-rule:evenodd;fill:#EBE1C5;}
	.st1{fill:#EBE1C5;}
</style>
<path class="st0" d="M64.2,3.1c-3.6,0-6.4,2.9-6.4,6.4v1.3c-2.1-0.6-4.5,0-6.2,1.7C49,15,49,19,51.5,21.5l0.9,0.9
	c-1.9,1.1-3.2,3.2-3.2,5.6c0,3.6,2.9,6.4,6.4,6.4h1.3c-0.6,2.1,0,4.5,1.7,6.2c2.5,2.5,6.6,2.5,9.1,0l2.6-2.6
	c2.3-2.3,3.4-5.4,3.3-8.5l4.1,4.1c2.5,2.5,6.6,2.5,9.1,0s2.5-6.6,0-9.1l-0.9-0.9c1.9-1.1,3.2-3.2,3.2-5.6c0-3.6-2.9-6.4-6.4-6.4
	h-1.3c0.6-2.1,0-4.5-1.7-6.2c-2.5-2.5-6.6-2.5-9.1,0L68,8c-2.3,2.3-3.4,5.4-3.3,8.5l-4.1-4.1c0,0,0,0,0,0V9.5c0-2,1.6-3.6,3.6-3.6
	c1.6,0,2.9,1,3.4,2.5C67.7,8.3,67.8,8.1,68,8l1.8-1.8C68.6,4.3,66.6,3.1,64.2,3.1z M79.8,14.4C79.8,14.5,79.8,14.5,79.8,14.4
	l-4.1,4.1c2.9-0.1,5.8,0.8,8.1,2.9c1.4-0.5,2.5-1.8,2.5-3.4c0-2-1.6-3.6-3.6-3.6H79.8z M58.6,31.6C58.6,31.5,58.6,31.5,58.6,31.6
	l4.1-4.1c-2.9,0.1-5.8-0.8-8.1-2.9c-1.4,0.5-2.5,1.8-2.5,3.4c0,2,1.6,3.6,3.6,3.6H58.6z M54.5,24.5c-0.1-0.1-0.2-0.2-0.3-0.3v0
	C54.3,24.3,54.4,24.4,54.5,24.5z M74.2,42.9c-2.4,0-4.4-1.3-5.6-3.2l1.8-1.8c0.1-0.1,0.3-0.3,0.4-0.4c0.5,1.4,1.8,2.5,3.4,2.5
	c2,0,3.6-1.6,3.6-3.6v-2.9c0.8,0.8,1.8,1.4,2.9,1.6v1.3C80.6,40.1,77.7,42.9,74.2,42.9z M77.7,7.4c-1.4-1.4-3.6-1.4-5,0L70,10.1
	c-3,3-3.2,7.6-0.8,10.8l8.5-8.5C79.1,11,79.1,8.8,77.7,7.4z M84.8,31.5c1.4-1.4,1.4-3.6,0-5l-2.6-2.6c-3-3-7.6-3.2-10.8-0.8l8.5,8.5
	C81.1,32.9,83.4,32.9,84.8,31.5z M65.7,38.6c-1.4,1.4-3.6,1.4-5,0c-1.4-1.4-1.4-3.6,0-5l8.5-8.5c2.4,3.3,2.2,7.9-0.8,10.8L65.7,38.6
	z M53.6,14.5c-1.4,1.4-1.4,3.6,0,5l2.6,2.6c3,3,7.6,3.2,10.8,0.8l-8.5-8.5C57.2,13.1,55,13.1,53.6,14.5z"/>
<path class="st1" d="M1.5,16.1h3.2v9.8h5.4v2.7H1.5V16.1z"/>
<path class="st1" d="M15.9,28.8c-1.1,0-2-0.2-2.8-0.6c-0.8-0.4-1.4-0.9-1.9-1.6c-0.4-0.7-0.6-1.5-0.6-2.4c0-0.9,0.2-1.7,0.6-2.4
	c0.4-0.7,1.1-1.2,1.9-1.6c0.8-0.4,1.7-0.6,2.8-0.6s2,0.2,2.8,0.6c0.8,0.4,1.4,0.9,1.8,1.6c0.4,0.7,0.7,1.5,0.7,2.4
	c0,0.9-0.2,1.7-0.7,2.4c-0.4,0.7-1,1.2-1.8,1.6C17.8,28.6,16.9,28.8,15.9,28.8z M15.9,26.4c0.6,0,1.1-0.2,1.5-0.6
	c0.4-0.4,0.6-0.9,0.6-1.6c0-0.7-0.2-1.2-0.6-1.5c-0.4-0.4-0.9-0.6-1.5-0.6c-0.6,0-1.1,0.2-1.5,0.6c-0.4,0.4-0.6,0.9-0.6,1.5
	c0,0.7,0.2,1.2,0.6,1.6C14.7,26.2,15.2,26.4,15.9,26.4z"/>
<path class="st1" d="M27,32.7c-0.6,0-1.1-0.1-1.7-0.2c-0.6-0.1-1.1-0.2-1.5-0.4v-2.2c0.9,0.4,2,0.6,3.2,0.6c0.9,0,1.5-0.2,1.9-0.5
	c0.4-0.4,0.6-0.9,0.6-1.6v-0.5c-0.3,0.3-0.8,0.5-1.3,0.7c-0.5,0.2-1,0.2-1.6,0.2c-0.9,0-1.7-0.2-2.4-0.6c-0.7-0.4-1.2-0.9-1.6-1.6
	C22.2,26,22,25.2,22,24.3c0-0.9,0.2-1.7,0.6-2.4c0.4-0.7,0.9-1.2,1.6-1.6c0.7-0.4,1.5-0.6,2.4-0.6c1.2,0,2.2,0.4,3,1.1V20h3v8
	c0,1.5-0.5,2.6-1.4,3.5C30.4,32.3,29,32.7,27,32.7z M27.4,26.4c0.5,0,0.9-0.1,1.3-0.4c0.4-0.2,0.6-0.6,0.8-1v-1.5
	c-0.2-0.4-0.4-0.7-0.8-1c-0.4-0.2-0.8-0.4-1.3-0.4c-0.6,0-1.2,0.2-1.6,0.6c-0.4,0.4-0.6,0.9-0.6,1.5c0,0.7,0.2,1.2,0.6,1.6
	C26.2,26.2,26.8,26.4,27.4,26.4z"/>
<path class="st1" d="M38.7,28.8c-1.1,0-2-0.2-2.8-0.6c-0.8-0.4-1.4-0.9-1.9-1.6c-0.4-0.7-0.6-1.5-0.6-2.4c0-0.9,0.2-1.7,0.6-2.4
	c0.4-0.7,1.1-1.2,1.9-1.6c0.8-0.4,1.7-0.6,2.8-0.6c1.1,0,2,0.2,2.8,0.6c0.8,0.4,1.4,0.9,1.8,1.6c0.4,0.7,0.7,1.5,0.7,2.4
	c0,0.9-0.2,1.7-0.7,2.4c-0.4,0.7-1,1.2-1.8,1.6C40.7,28.6,39.8,28.8,38.7,28.8z M38.7,26.4c0.6,0,1.1-0.2,1.5-0.6
	c0.4-0.4,0.6-0.9,0.6-1.6c0-0.7-0.2-1.2-0.6-1.5c-0.4-0.4-0.9-0.6-1.5-0.6c-0.6,0-1.1,0.2-1.5,0.6c-0.4,0.4-0.6,0.9-0.6,1.5
	c0,0.7,0.2,1.2,0.6,1.6C37.6,26.2,38.1,26.4,38.7,26.4z"/>
<path class="st1" d="M94.4,16.1h3.2v12.5h-3.2V16.1z"/>
<path class="st1" d="M99.2,20h3v0.9c0.8-0.8,1.8-1.1,3-1.1c0.9,0,1.7,0.2,2.4,0.6c0.7,0.4,1.2,0.9,1.6,1.6c0.4,0.7,0.6,1.5,0.6,2.4
	c0,0.9-0.2,1.7-0.6,2.4c-0.4,0.7-0.9,1.2-1.6,1.6c-0.7,0.4-1.5,0.6-2.4,0.6c-0.6,0-1.1-0.1-1.6-0.3c-0.5-0.2-0.9-0.4-1.3-0.7v4.6
	h-3.1V20z M104.4,26.4c0.6,0,1.2-0.2,1.6-0.6c0.4-0.4,0.6-0.9,0.6-1.6c0-0.7-0.2-1.2-0.6-1.5c-0.4-0.4-0.9-0.6-1.6-0.6
	c-0.5,0-0.9,0.1-1.3,0.4c-0.4,0.2-0.7,0.6-0.8,1V25c0.2,0.4,0.4,0.8,0.8,1C103.5,26.3,104,26.4,104.4,26.4z"/>
<path class="st1" d="M114.5,28.8c-0.7,0-1.4-0.1-2.2-0.2c-0.8-0.1-1.3-0.3-1.8-0.6v-2.3c0.5,0.3,1.1,0.5,1.8,0.7
	c0.7,0.2,1.3,0.3,1.9,0.3c0.4,0,0.7,0,0.9-0.1c0.2-0.1,0.3-0.2,0.3-0.4c0-0.1-0.1-0.3-0.2-0.3c-0.1-0.1-0.3-0.2-0.7-0.3
	c-0.3-0.1-0.7-0.2-1.1-0.3c-0.7-0.2-1.3-0.4-1.7-0.7s-0.7-0.5-0.9-0.9c-0.2-0.3-0.3-0.8-0.3-1.3c0-0.9,0.4-1.6,1.1-2.1
	c0.7-0.5,1.7-0.7,3-0.7c0.6,0,1.3,0.1,1.9,0.2c0.7,0.1,1.2,0.3,1.6,0.5v2.3c-0.4-0.2-0.8-0.4-1.4-0.6c-0.6-0.2-1.1-0.2-1.6-0.2
	c-0.4,0-0.7,0-0.9,0.1c-0.2,0.1-0.3,0.2-0.3,0.4c0,0.2,0.1,0.3,0.3,0.4s0.6,0.2,1.2,0.4c0.4,0.1,0.5,0.1,0.5,0.1
	c0.8,0.2,1.4,0.4,1.8,0.7s0.7,0.5,0.9,0.9c0.2,0.3,0.3,0.8,0.3,1.3c0,0.8-0.4,1.5-1.1,2C116.9,28.6,115.8,28.8,114.5,28.8z"/>
<path class="st1" d="M123.3,28.8c-1.2,0-2.1-0.3-2.7-1c-0.6-0.7-0.9-1.5-0.9-2.6V20h3.1v4.9c0,1,0.4,1.5,1.3,1.5
	c0.4,0,0.8-0.1,1.1-0.3c0.3-0.2,0.6-0.5,0.8-0.8V20h3.1v8.6h-3v-0.9c-0.4,0.4-0.8,0.7-1.3,0.9C124.5,28.7,123.9,28.8,123.3,28.8z"/>
<path class="st1" d="M131,20h2.9v0.9c0.4-0.4,0.8-0.7,1.2-0.9c0.5-0.2,1-0.3,1.5-0.3c0.6,0,1.2,0.1,1.5,0.3c0.4,0.2,0.7,0.5,0.9,0.9
	c0.4-0.4,0.8-0.6,1.3-0.8c0.5-0.2,1-0.3,1.6-0.3c1.1,0,1.9,0.3,2.4,0.9c0.5,0.6,0.7,1.4,0.7,2.5v5.5h-3v-5c0-0.5-0.1-0.8-0.3-1
	c-0.2-0.2-0.5-0.3-0.9-0.3c-0.5,0-1,0.2-1.3,0.6c0,0.2,0,0.5,0,0.9v4.9h-3v-5.2c0-0.4-0.1-0.8-0.2-0.9c-0.2-0.2-0.4-0.3-0.8-0.3
	c-0.6,0-1.1,0.3-1.6,1v5.4h-3V20z"/>
</svg>
